<svg width="25" height="25" viewBox="0 0 25 25" fill="none" xmlns="http://www.w3.org/2000/svg">
<path d="M5.5 4C5.37305 4 5.23828 4.04297 5.14062 4.14062L4.29688 5H3.5C2.60352 5 1.9043 6.13867 1.40625 8.39062C1.35156 8.64062 1.10742 8.75195 0.671875 8.875C0.421875 8.94727 0 9.07422 0 9.51562C0 10.2832 0.945312 11 1.67188 11C1.99023 11 2.20703 11.0723 2.32812 11.2031C2.56445 11.459 2.52148 12.0352 2.48438 12.5V12.6094C2.45508 12.9863 2.22852 13.459 1.95312 14.0625C1.58008 14.8789 1.07422 16.002 0.71875 17.5781C0.302734 19.4238 0.546875 21.125 1.35938 22.1406C1.79883 22.6895 2.37695 23 3 23H7C7.78516 23 8.83398 21.9141 9.10938 20.8125C9.25195 20.2441 9.51562 19.1289 9.82812 15.5H12.3438C14.4434 15.5 15.5 13.4746 15.5 12.3438V11H22C22.2148 11 22.4004 10.8594 22.4688 10.6562L22.9219 9.32812L24.2812 8.42188C24.4199 8.32812 24.5 8.16797 24.5 8V5.5C24.5 5.22461 24.2773 5 24 5H22.7031L22.3594 4.64062C22.2656 4.54688 22.1328 4.5 22 4.5H21.5C21.3672 4.5 21.2344 4.54688 21.1406 4.64062L20.7969 5H6.70312L5.85938 4.14062C5.76172 4.04297 5.62695 4 5.5 4ZM12.5 11H14.5V12.3438C14.5 12.9375 13.8359 14.5 12.3438 14.5H9.92188C9.96094 13.9941 9.99023 13.4844 10.0312 12.8906C10.0508 12.5977 10.5938 11 12.5 11ZM11.7969 11.6094C10.7617 11.9336 10.5332 12.916 10.5312 12.9219C10.5156 13.1562 10.5 13.373 10.4844 13.5938C10.8633 13.7441 11.2695 13.8125 11.7031 13.8125C12.3438 13.8125 12.8594 13.3281 12.8594 12.7031C12.8594 12.1875 12.4258 11.9707 12.1719 11.8438C12.0254 11.7715 11.9023 11.7129 11.7969 11.6094Z" fill="#B3B3B3"/>
</svg>
