<svg width="18" height="18" viewBox="0 0 18 18" fill="none" xmlns="http://www.w3.org/2000/svg">
<path d="M9.00001 1.79999C8.50107 1.79999 8.07365 2.10402 7.89259 2.5371L1.38048 13.7683V13.7695C1.26295 13.9588 1.20046 14.1772 1.20001 14.4C1.20001 14.7182 1.32644 15.0235 1.55148 15.2485C1.77653 15.4736 2.08175 15.6 2.40001 15.6C2.42817 15.5998 2.45631 15.5986 2.48439 15.5965L2.48673 15.6H9.00001H15.5133L15.5156 15.5953C15.5437 15.5979 15.5718 15.5994 15.6 15.6C15.9183 15.6 16.2235 15.4736 16.4485 15.2485C16.6736 15.0235 16.8 14.7182 16.8 14.4C16.7998 14.1768 16.7373 13.958 16.6195 13.7683L16.6102 13.7519L16.609 13.7508L10.1074 2.5371C9.92637 2.10402 9.49895 1.79999 9.00001 1.79999ZM8.27228 6.81561H9.72775L9.60704 10.6992H8.39298L8.27228 6.81561ZM9.00236 11.8863C9.49556 11.8863 9.79103 12.1517 9.79103 12.6047C9.79103 13.0493 9.49556 13.3137 9.00236 13.3137C8.50556 13.3137 8.20783 13.0493 8.20783 12.6047C8.20783 12.1517 8.50496 11.8863 9.00236 11.8863Z" fill="#E88E2F"/>
</svg>
