<svg width="13" height="13" viewBox="0 0 13 13" fill="none" xmlns="http://www.w3.org/2000/svg">
<g clip-path="url(#clip0_318_61)">
<path d="M5.77083 0.5C5.70899 0.500033 5.64917 0.522027 5.60204 0.562061C5.55491 0.602094 5.52353 0.657564 5.5135 0.71858L5.25975 2.27208C4.95461 2.36083 4.66365 2.48059 4.38943 2.62976L3.10739 1.71416C3.05719 1.67832 2.99593 1.66142 2.93445 1.66646C2.87298 1.6715 2.81528 1.69815 2.77159 1.74168L1.75656 2.7556C1.71318 2.79901 1.6865 2.85631 1.68118 2.91744C1.67587 2.97857 1.69228 3.03961 1.72752 3.08984L2.62943 4.37993C2.47795 4.65572 2.35553 4.9483 2.26459 5.25628L0.71758 5.51359C0.656746 5.52383 0.60151 5.5553 0.561677 5.60241C0.521845 5.64951 0.499993 5.7092 0.5 5.77089V7.20567C0.499889 7.26699 0.521381 7.32639 0.560703 7.37344C0.600025 7.42049 0.654665 7.45219 0.715032 7.46298L2.26306 7.73709C2.35351 8.04454 2.47515 8.33732 2.62688 8.61345L1.71376 9.89079C1.67792 9.94098 1.66101 10.0022 1.66605 10.0637C1.67109 10.1252 1.69774 10.1829 1.74127 10.2266L2.7558 11.2415C2.79911 11.2848 2.85628 11.3115 2.9173 11.3169C2.97833 11.3223 3.0393 11.3061 3.08955 11.2711L4.38229 10.3662C4.65732 10.5162 4.949 10.6369 5.25516 10.7264L5.5135 12.2819C5.52364 12.3429 5.55507 12.3982 5.60219 12.4381C5.6493 12.4781 5.70906 12.5 5.77083 12.5H7.20573C7.26713 12.5001 7.32659 12.4785 7.37366 12.4391C7.42072 12.3997 7.45238 12.3449 7.46306 12.2845L7.73975 10.7228C8.04464 10.6319 8.33495 10.5095 8.60853 10.3585L9.90994 11.2716C9.96017 11.3068 10.0212 11.3232 10.0824 11.3179C10.1435 11.3126 10.2008 11.2859 10.2442 11.2425L11.2587 10.2271C11.3024 10.1833 11.3292 10.1253 11.3341 10.0636C11.3391 10.0019 11.3219 9.9405 11.2857 9.89029L10.3578 8.60224C10.5062 8.32999 10.6257 8.04145 10.7145 7.73862L12.2845 7.46348C12.3449 7.45281 12.3997 7.42115 12.4391 7.37409C12.4785 7.32703 12.5001 7.26757 12.5 7.20618V5.7714C12.5 5.70956 12.478 5.64975 12.4379 5.60263C12.3979 5.5555 12.3424 5.52413 12.2814 5.5141L10.714 5.25781C10.6246 4.95535 10.5048 4.66732 10.3563 4.39521L11.2715 3.09137C11.3067 3.04114 11.3231 2.98009 11.3178 2.91897C11.3125 2.85784 11.2858 2.80054 11.2424 2.75713L10.2274 1.7427C10.1836 1.69898 10.1256 1.67226 10.0639 1.66731C10.0022 1.66237 9.94079 1.67951 9.89057 1.71569L8.60599 2.63944C8.33229 2.48908 8.0418 2.3673 7.73618 2.27717L7.46306 0.716033C7.45249 0.655484 7.42088 0.60061 7.3738 0.561088C7.32672 0.521565 7.2672 0.499931 7.20573 0.5H5.77083ZM5.99299 1.02174H6.98662L7.2465 2.50493C7.25514 2.55467 7.27804 2.60084 7.31241 2.63783C7.34678 2.67482 7.39115 2.70104 7.44013 2.71332C7.82168 2.80839 8.18004 2.9591 8.50713 3.1571C8.55087 3.18359 8.60142 3.19666 8.65251 3.19466C8.70361 3.19267 8.75299 3.17571 8.79452 3.14589L10.0154 2.26851L10.7181 2.97113L9.84879 4.20975C9.81976 4.25107 9.80334 4.29993 9.80153 4.35039C9.79972 4.40086 9.8126 4.45076 9.8386 4.49406C10.0347 4.82038 10.1834 5.17645 10.2783 5.55588C10.2907 5.60529 10.3173 5.65001 10.3548 5.68451C10.3923 5.719 10.439 5.74177 10.4893 5.75L11.9782 5.99355V6.98709L10.4862 7.24898C10.4365 7.25779 10.3903 7.28088 10.3534 7.31543C10.3165 7.34999 10.2904 7.39452 10.2783 7.44361C10.1845 7.82256 10.0357 8.17861 9.83962 8.50492C9.8133 8.54865 9.80039 8.59912 9.80247 8.65011C9.80455 8.70109 9.82154 8.75035 9.85134 8.79178L10.7329 10.0151L10.0302 10.7182L8.7935 9.85054C8.75198 9.82146 8.70287 9.8051 8.65219 9.80347C8.60152 9.80184 8.55146 9.81501 8.50815 9.84137C8.18269 10.0394 7.82396 10.1908 7.44369 10.2872C7.39495 10.2995 7.35079 10.3256 7.31652 10.3624C7.28226 10.3992 7.25936 10.4451 7.25057 10.4946L6.98713 11.9783H5.99197L5.74637 10.5012C5.73801 10.4509 5.71512 10.4042 5.68053 10.3669C5.64595 10.3295 5.60117 10.303 5.55172 10.2908C5.16994 10.1967 4.80997 10.0462 4.48064 9.84851C4.4374 9.82261 4.38759 9.8098 4.33722 9.8116C4.28685 9.81341 4.23809 9.82977 4.19682 9.8587L2.96981 10.7182L2.26662 10.0141L3.13389 8.80197C3.16352 8.76044 3.18034 8.71113 3.18224 8.66015C3.18414 8.60916 3.17105 8.55874 3.14459 8.51512C2.94474 8.18492 2.7936 7.82501 2.69822 7.44158C2.68601 7.39274 2.65994 7.34847 2.62314 7.31412C2.58634 7.27976 2.54039 7.25679 2.49083 7.24796L1.02178 6.98709V5.99202L2.48981 5.74796C2.53999 5.73964 2.58665 5.71683 2.62404 5.68234C2.66143 5.64785 2.68792 5.60319 2.70026 5.55384C2.79645 5.16908 2.94752 4.80923 3.14662 4.47979C3.17288 4.43654 3.18599 4.38659 3.18436 4.33602C3.18273 4.28545 3.16644 4.23645 3.13745 4.19497L2.28038 2.97011L2.98408 2.26698L4.20038 3.13621C4.24176 3.16571 4.29086 3.18249 4.34164 3.18448C4.39242 3.18647 4.44268 3.17359 4.48624 3.14742C4.81383 2.95069 5.17464 2.80141 5.55682 2.70771C5.6065 2.69548 5.65148 2.66892 5.68618 2.63132C5.72088 2.59373 5.74376 2.54676 5.75197 2.49626L5.99299 1.02174ZM6.5 4.41304C5.3504 4.41304 4.41287 5.3505 4.41287 6.5C4.41287 7.6495 5.3504 8.58696 6.5 8.58696C7.6496 8.58696 8.58713 7.6495 8.58713 6.5C8.58713 5.3505 7.6496 4.41304 6.5 4.41304ZM6.5 4.93478C7.36761 4.93478 8.06535 5.63246 8.06535 6.5C8.06535 7.36754 7.36761 8.06522 6.5 8.06522C5.63239 8.06522 4.93465 7.36754 4.93465 6.5C4.93465 5.63246 5.63239 4.93478 6.5 4.93478Z" fill="white"/>
</g>
<defs>
<clipPath id="clip0_318_61">
<rect width="13" height="13" fill="white"/>
</clipPath>
</defs>
</svg>
