<svg width="25" height="25" viewBox="0 0 25 25" fill="none" xmlns="http://www.w3.org/2000/svg">
<path d="M14.9668 15.5684C14.8926 14.7617 14.9219 14.1992 14.9219 13.4629C15.2871 13.2715 15.9414 12.0508 16.0508 11.0195C16.3379 10.9961 16.791 10.7168 16.9238 9.61133C16.9941 9.01758 16.7109 8.68359 16.5371 8.57812C17.0039 7.17383 17.9746 2.82812 14.7441 2.37891C14.4102 1.79492 13.5586 1.5 12.4531 1.5C8.02539 1.58203 7.49219 4.84375 8.46289 8.57812C8.28906 8.68359 8.00586 9.01758 8.07617 9.61133C8.21094 10.7168 8.66211 10.9961 8.94922 11.0195C9.05859 12.0508 9.73828 13.2715 10.1055 13.4629C10.1055 14.1992 10.1328 14.7617 10.0586 15.5684C9.18359 17.9238 3.27344 17.2617 3 21.8047H22C21.7266 17.2617 15.8418 17.9238 14.9668 15.5684Z" fill="#B3B3B3"/>
</svg>
