<svg width="35" height="35" viewBox="0 0 35 35" fill="none" xmlns="http://www.w3.org/2000/svg">
<path d="M17.5 1.39999C8.6165 1.39999 1.39999 8.6165 1.39999 17.5C1.39999 26.3835 8.6165 33.6 17.5 33.6C26.3835 33.6 33.6 26.3835 33.6 17.5C33.6 8.6165 26.3835 1.39999 17.5 1.39999ZM17.5 2.79999C25.6269 2.79999 32.2 9.37312 32.2 17.5C32.2 25.6269 25.6269 32.2 17.5 32.2C9.37312 32.2 2.79999 25.6269 2.79999 17.5C2.79999 9.37312 9.37312 2.79999 17.5 2.79999ZM25.9273 7.69316C25.8256 7.69023 25.7245 7.7095 25.631 7.74964C25.5375 7.78978 25.4539 7.84982 25.3859 7.92558L18.3285 15.5709C18.0668 15.4583 17.7849 15.4002 17.5 15.4C16.943 15.4 16.4089 15.6212 16.0151 16.0151C15.6212 16.4089 15.4 16.943 15.4 17.5C15.4 18.057 15.6212 18.5911 16.0151 18.9849C16.4089 19.3787 16.943 19.6 17.5 19.6C17.6173 19.6002 17.7343 19.5906 17.85 19.5713L20.3875 24.1404C20.4322 24.2209 20.4923 24.2917 20.5644 24.3489C20.6365 24.4062 20.7191 24.4486 20.8076 24.4739C20.8961 24.4992 20.9887 24.5068 21.0801 24.4962C21.1716 24.4857 21.26 24.4573 21.3405 24.4126C21.4209 24.3679 21.4918 24.3078 21.549 24.2357C21.6062 24.1636 21.6486 24.0809 21.6739 23.9924C21.6991 23.9039 21.7067 23.8113 21.6962 23.7199C21.6857 23.6285 21.6572 23.54 21.6125 23.4596L19.0723 18.8891C19.4116 18.5058 19.5993 18.0119 19.6 17.5C19.5998 17.1583 19.5163 16.8218 19.3566 16.5197L26.4141 8.87441C26.5069 8.77639 26.5695 8.65361 26.5942 8.52085C26.6188 8.3881 26.6046 8.25104 26.5532 8.1262C26.5017 8.00135 26.4153 7.89405 26.3042 7.81721C26.1932 7.74038 26.0623 7.6973 25.9273 7.69316Z" fill="white"/>
</svg>
